<svg width="1600" height="600" viewBox="0 0 1600 600" fill="none" xmlns="http://www.w3.org/2000/svg">
<rect width="1600" height="600" fill="#D1EEF5"/>
<rect y="449" width="1600" height="151" fill="#B97A57"/>
<path d="M1600 449H0V536.5C21.5 533 67.5 525 75.5 525C83.5 525 108.5 538.667 120 545.5C146.167 542.167 203 535.5 221 535.5C243.5 535.5 287.5 525 303.5 525C319.5 525 410.5 503 424.5 525C438.5 547 467 503 481 503H578C598 503 610.5 525 632.5 545.5C654.5 566 733.5 525 761.5 525C789.5 525 783.5 499 836 503C888.5 507 921 525 961.5 545.5C1002 566 1022 543.5 1102.5 525C1183 506.5 1175 525 1262 525C1349 525 1354.5 543.5 1443.5 525C1514.7 510.2 1578 518.833 1600 525V449Z" fill="#22B14C"/>
</svg>
